<svg xmlns="http://www.w3.org/2000/svg" xml:space="preserve" width="2048" height="2048" style="shape-rendering:geometricPrecision;text-rendering:geometricPrecision;image-rendering:optimizeQuality;fill-rule:evenodd;clip-rule:evenodd"><defs><clipPath id="id0"><path d="M1024 0c565.539 0 1024 458.461 1024 1024s-458.461 1024-1024 1024S0 1589.539 0 1024 458.461 0 1024 0z"/></clipPath><style>.fil1{fill:#78909c}.fil5{fill:#ffd54f;fill-rule:nonzero}</style></defs><g id="Layer_x0020_1"><path d="M1024 0c565.539 0 1024 458.461 1024 1024s-458.461 1024-1024 1024S0 1589.539 0 1024 458.461 0 1024 0z" style="fill:#90a4ae"/><g style="clip-path:url(#id0)"><g id="_341191240"><path id="_4558307681" class="fil1" d="M1579.25 577.301 2715.13 1713.18v46.68L1579.25 623.973z"/><path id="_455830984" class="fil1" d="M1579.25 623.973 2715.13 1759.86h-70.09L1509.16 623.973z"/><path id="_455830792" class="fil1" d="M1509.16 623.973 2645.04 1759.86l-50.76 223.72L1458.39 847.7z"/><path id="_455830504" class="fil1" d="m1584 847.7 1135.88 1135.88-5.21 27.62L1578.79 875.32z"/><path id="_455830744" class="fil1" d="M851.963 769.517 1987.84 1905.4l1.76 1.87 1.56 2.03 1.36 2.17 1.15 2.3.93 2.4.69 2.49.45 2.57.2 2.64-.07 2.68-.35 2.71L859.64 793.374l.346-2.709.07-2.68-.196-2.633-.451-2.572-.695-2.495-.928-2.401-1.15-2.294-1.36-2.169-1.562-2.029z"/><path id="_455831296" class="fil1" d="M773.151 770.431 1909.03 1906.31l1.66 1.96 1.46 2.1 1.26 2.24 1.04 2.35.82 2.46.57 2.55.32 2.63.06 2.68-.22 2.72L780.122 792.119l.216-2.725-.057-2.681-.322-2.622-.574-2.549-.812-2.46-1.042-2.357-1.258-2.237-1.463-2.103z"/><path id="_455831344" class="fil1" d="M652.702 769.158 1788.58 1905.04l1.79 1.84 1.62 2.01 1.41 2.17 1.21 2.32.98 2.45.75 2.57.49 2.69L660.945 785.212l-.49-2.69-.744-2.577-.983-2.452-1.208-2.316-1.416-2.17-1.611-2.009z"/><path id="_455831440" class="fil1" d="M600.421 891.505 1736.3 2027.39l4.98 18.72L605.396 910.228z"/><path id="_455831272" class="fil1" d="M660.945 785.212 1796.83 1921.09l26.08 200.09L687.027 985.294z"/><path id="_455831752" class="fil1" d="M780.122 792.119 1916 1928l-25.15 192.98L754.967 985.098z"/><path id="_455831776" class="fil1" d="M859.64 793.374 1995.52 1929.26l-17.63 98.13L842.013 891.505z"/><path id="_455831536" class="fil1" d="M930.243 796.541 2066.12 1932.42l-17.1 94.97L913.137 891.505z"/><path id="_455831368" class="fil1" d="M605.396 910.228 1741.28 2046.11l.39 1.44.42 1.42.44 1.42.46 1.42.49 1.4.51 1.4.53 1.38.56 1.38.58 1.37.6 1.36.62 1.36.64 1.34.67 1.33.68 1.32.71 1.32.73 1.3.75 1.3.77 1.28.79 1.27.81 1.26.83 1.26.85 1.24.87 1.23.89 1.21.9 1.21.93 1.2.95 1.18.96 1.17.99 1.16 1 1.15 1.02 1.13 1.04 1.13L628.774 951.563l-1.038-1.122-1.019-1.135-1.003-1.147-.982-1.16-.965-1.172-.946-1.183-.929-1.195-.908-1.207-.888-1.218-.871-1.23-.849-1.24-.83-1.252-.81-1.262-.791-1.274-.769-1.282-.748-1.295-.729-1.304-.708-1.313-.686-1.324-.664-1.332-.643-1.343-.622-1.353-.6-1.36-.577-1.37-.555-1.379-.533-1.387-.51-1.397-.488-1.403-.464-1.412-.442-1.421-.417-1.428z"/><path id="_455831656" class="fil1" d="M922.567 772.682 2058.45 1908.56l1.75 1.88 1.56 2.03 1.36 2.17 1.15 2.29.93 2.4.69 2.5.45 2.57.2 2.63-.07 2.68-.35 2.71L930.243 796.541l.346-2.71.07-2.68-.196-2.633-.452-2.572-.694-2.494-.927-2.401-1.151-2.294-1.36-2.17-1.562-2.03z"/><path id="_455831176" class="fil1" d="M999.278 933.478 2135.16 2069.36l-.01.44-.01.47-.02.49-.03.51-.04.55-.05.56-.05.59-.07.62L998.998 937.71l.067-.618.056-.592.047-.567.041-.542.03-.517.022-.49.013-.467z"/><path id="_455832376" class="fil1" d="M986.987 905.125 2122.87 2041.01l1.47 1.52 1.4 1.58 1.31 1.64 1.23 1.7 1.14 1.75 1.05 1.81.95 1.86.85 1.91.74 1.96.65 2 .53 2.04.42 2.09.3 2.13.19 2.16.06 2.2L999.278 933.478l-.062-2.201-.185-2.163-.304-2.126-.42-2.087-.532-2.046-.642-2.002-.748-1.956-.851-1.91-.949-1.859-1.046-1.807-1.138-1.754-1.227-1.698-1.315-1.642-1.396-1.581z"/><path id="_455832232" class="fil1" d="M998.998 937.71 2134.88 2073.59l-55.1 492.28L943.894 1429.98z"/><path id="_455831944" class="fil1" d="M1578.79 875.32 2714.67 2011.2l-101.21 536.72-1135.88-1135.88z"/><path id="_455832328" class="fil1" d="m1477.58 1412.04 1135.88 1135.88-3.6 19.05-1135.88-1135.88z"/><path id="_455832040" class="fil1" d="m1203.67 1431.09 1135.88 1135.88h-19.29L1184.38 1431.09z"/><path id="_455832496" class="fil1" d="M943.894 1429.98 2079.78 2565.87l-.29 2.12-.38 2.09-.48 2.07-.57 2.04-.65 2-.75 1.96-.83 1.92-.91 1.88-1 1.83-1.08 1.78-1.16 1.74-1.24 1.67-1.31 1.62-1.39 1.56-1.46 1.49-1.53 1.43L928.869 1459.18l1.532-1.42 1.46-1.5 1.388-1.55 1.313-1.62 1.237-1.68 1.16-1.73 1.079-1.78.998-1.83.916-1.88.831-1.92.744-1.97.657-2 .566-2.03.476-2.07.381-2.09z"/><path id="_455832064" class="fil1" d="M928.869 1459.18 2064.75 2595.07l-1.53 1.3-1.59 1.23-1.64 1.17-1.7 1.1-1.75 1.02-1.8.94-1.85.87-1.9.79-1.95.7-1.99.62-2.04.53-2.08.44-2.12.35-2.16.25-2.2.15-2.24.05L898.333 1470.7l2.235-.05 2.198-.15 2.16-.25 2.121-.35 2.08-.44 2.037-.53 1.994-.62 1.948-.7 1.9-.79 1.853-.87 1.803-.94 1.75-1.03 1.697-1.09 1.643-1.17 1.588-1.24z"/><path id="_455832112" class="fil1" d="M898.333 1470.7 2034.21 2606.58h-333.38L564.944 1470.7z"/><path id="_455832184" class="fil1" d="M564.944 1470.7 1700.83 2606.58l-2.24-.05-2.2-.15-2.16-.25-2.12-.35-2.08-.44-2.04-.53-1.99-.62-1.95-.7-1.9-.79-1.85-.87-1.8-.94-1.75-1.02-1.7-1.1-1.65-1.17-1.58-1.23L535.937 1460.48l1.587 1.24 1.643 1.17 1.698 1.09 1.75 1.03 1.803.94 1.852.87 1.9.79 1.949.7 1.992.62 2.038.53 2.08.44 2.121.35 2.16.25 2.199.15z"/><path id="_455832208" class="fil1" d="m1454.7 1431.09 1135.88 1135.88h-251.03L1203.67 1431.09z"/><path id="_455833240" class="fil1" d="m1473.98 1431.09 1135.88 1135.88h-19.28L1454.7 1431.09z"/><path id="_341192392" class="fil1" d="M1579.25 577.301v46.672h-70.093l-50.762 223.728h125.607l-5.208 27.62-101.218 536.719-3.594 19.05H1184.38l-3.593-19.05-101.217-536.72-5.208-27.62h336.322l57.216-252.168 4.135-18.231h107.216zM631.015 762.187c14.62-1.906 28.024 8.401 29.93 23.024l26.081 200.082a132.963 132.963 0 0 0 13.704 2.743l26.439-202.825c1.906-14.623 15.308-24.93 29.93-23.024 14.622 1.907 24.93 15.309 23.023 29.931l-25.155 192.979a128.221 128.221 0 0 0 17.041-5.761l35.095-195.382c2.601-14.507 16.472-24.16 30.978-21.558 14.505 2.6 24.16 16.47 21.559 30.977l-17.627 98.13h16.891l18.803-104.383c2.601-14.508 16.472-24.16 30.978-21.559 14.505 2.6 24.159 16.472 21.558 30.978l-17.106 94.964h40.302c1.54 0 3.337.118 5.36.344 10.028 1.122 19.529 5.45 26.636 11.82 8.475 7.596 13.843 17.985 13.843 29.81 0 1.138-.093 2.551-.28 4.231l-55.104 492.274c-1.274 11.38-6.67 21.774-15.025 29.2-8 7.112-18.523 11.515-30.536 11.515H564.944c-12.014 0-22.536-4.403-30.536-11.516-8.355-7.424-13.75-17.816-15.024-29.199L464.28 937.708c-.187-1.68-.28-3.092-.28-4.233 0-11.824 5.368-22.212 13.842-29.809 7.107-6.367 16.61-10.697 26.636-11.82 2.022-.225 3.82-.343 5.36-.343h90.583l4.975 18.723c4.078 15.353 12.212 29.433 23.379 41.335l-20.786-159.444c-1.906-14.622 8.402-28.024 23.026-29.931z"/></g></g><path d="M1024 0c565.539 0 1024 458.461 1024 1024s-458.461 1024-1024 1024S0 1589.539 0 1024 458.461 0 1024 0z" style="fill:none"/><path style="fill:#1565c0;fill-rule:nonzero" d="m1408.78 856.072 59.12-260.54 4.13-18.231h107.22v46.672h-70.09l-52.66 232.099z"/><path style="fill:#eceff1;fill-rule:nonzero" d="M1102.45 847.7H1584l-5.21 27.62-101.21 536.72-3.6 19.05h-289.6l-3.59-19.05-101.22-536.72-5.21-27.62z"/><path class="fil5" d="M660.945 785.212c-1.907-14.623-15.31-24.932-29.931-23.024-14.623 1.907-24.931 15.31-23.024 29.931l22.607 173.431c5.622 6.958 12.317 13.094 19.66 18.253 11.726 8.238 24.964 13.929 38.813 17.165l-28.125-215.756zM780.122 792.119c1.907-14.622-8.401-28.024-23.023-29.931-14.622-1.908-28.024 8.4-29.932 23.024l-28.365 217.615a125.934 125.934 0 0 0 18.555 1.369c12.13 0 24.246-1.73 35.804-5.245l26.961-206.831zM859.639 793.374c2.6-14.506-7.051-28.376-21.558-30.977-14.506-2.602-28.377 7.051-30.978 21.558l-37.46 208.552a106.825 106.825 0 0 0 14.815-8.705c16.39-11.516 29.557-27.895 34.754-47.452l11.12-41.84h11.142l18.165-101.137zM930.243 796.541c2.6-14.506-7.052-28.377-21.558-30.978-14.506-2.6-28.378 7.051-30.977 21.559L858.363 894.51h54.233l17.647-97.97z"/><path d="M509.839 891.505h90.582l4.975 18.723c5.98 22.51 20.678 42.283 40.866 56.467 20.298 14.262 46.117 22.777 74.356 22.777 28.237 0 54.056-8.515 74.355-22.777 20.188-14.184 34.884-33.959 40.866-56.467l4.974-18.723h112.625c1.542 0 3.339.118 5.362.344 10.028 1.122 19.528 5.45 26.635 11.82 8.476 7.596 13.844 17.985 13.844 29.809 0 1.138-.094 2.552-.28 4.232l-55.105 492.274c-1.274 11.38-6.67 21.773-15.024 29.199-8.001 7.113-18.524 11.516-30.537 11.516H564.944c-12.014 0-22.536-4.403-30.536-11.516-8.355-7.424-13.75-17.816-15.023-29.2L464.28 937.71c-.186-1.68-.28-3.092-.28-4.233 0-11.824 5.368-22.212 13.843-29.809 7.107-6.367 16.609-10.697 26.635-11.82 2.022-.225 3.82-.343 5.361-.343z" style="fill:#d32f2f"/><path d="M731.639 1144.19c25.405 0 48.411 10.302 65.061 26.953 16.651 16.65 26.953 39.654 26.953 65.06 0 25.408-10.302 48.412-26.953 65.062-16.652 16.65-39.657 26.953-65.061 26.953-25.407 0-48.411-10.303-65.062-26.953-16.65-16.65-26.952-39.654-26.952-65.061 0-25.407 10.3-48.411 26.952-65.061 16.65-16.651 39.655-26.953 65.062-26.953z" style="fill:#b71c1c"/></g></svg>